<svg baseProfile="full" xmlns="http://www.w3.org/2000/svg" width="600" height="200" viewBox="0 0 600 200"><style>/*<![CDATA[ */
    .bg {
    	stroke: #36a2eb;
	    fill: none;
	    stroke-dasharray: 10,5;
	    stroke-opacity: 0.3;
	    stroke-width: 2;
	}

	.line {
        opacity: 0.3;
	}
	
	path.line {
	    fill: none;
	    stroke-width: 1.1px;
	    stroke: #36a2eb;
	}

	.main {
	    opacity: 0.1;
	    stroke: none;
	}
	
	.color {
        fill: #36a2eb;
	}

    /* ]]>*/</style><g class="mg-missing-pane"><rect class="bg" x="8" y="8" width="584" height="184" rx="15" ry="15"/><path class="line mg-line1-color" d="M19.5 82S27 89.4 31 89.3c3.8 0 7.6-8.4 11.4-7.7 4 .7 7.7 12 11.5 12 3 .2 7-12.4 11-12 4 .5 7 12 11 15 3 3 7 2.5 11 3.5s7.2 6 11 3c4-3 7.7-20 11.5-22 4-1 7.7 9 11.5 13 4 4 8 6 11.8 8 4 2 8 6.7 11.7 3 4-3 7.8-18 11.6-21.2 4-3.6 7.7-3 11.5 0 3.5 2.8 7.4 12.8 11.2 17 4 4 7.6 9 11.4 8 3.7-2 7.7-14 11.7-16 3.7-2 7.5 1 11.3 3.5 4 2 7.6 9.7 11.4 9.6 4-.5 7.6-12 11.4-10.7s8 20 12 19c4-.8 7.6-22 11.5-23.6 4-1 7.5 14 11.3 15.7 4 2 7.4-6.4 11.2-6.2 4 0 8 5.8 11.7 8 3.4 2 7.3 3.6 11 5 3.6 1.5 7.4 6 11.3 3.5 3.7-2.7 7.5-20 11.3-19.5 4 .2 7.8 21.7 11.6 21.6 3.5 0 7.4-21 11.2-22 4-1 7.7 13 11.5 15.6s7.8-.4 11.7-.7c3.3-.4 7-2 11-1.3 4 1 7.4 7 11.2 6 4 0 7.7-12 11.5-10s7.4 20 11.2 22c4 2 7.6-10 11.5-11 4 0 7.4 8 11.2 8 4 .8 7.8-7 11.6-6 3.7 1 7.6 11.5 11.4 11.7 3.7 0 7.6-9.7 11.4-10.5 3.6-1 7.4 5.2 11.3 6 3.8 0 7.6-4.8 11.4-4 4 .4 7.6 5 11.4 7.3 4 2.6 7.6 8 11.4 7 4-.6 8-9.4 11.7-11.2 4-1.6 7.5 3 11.4.7 5-3 8.7-13 12.7-15s7.6-.4 11.4 1.7c3.7 2 11.4 11 11.4 11"/><path class="main color" d="M19.5 82S27 89.4 31 89.3c3.8 0 7.6-8.4 11.4-7.7 4 .7 7.7 12 11.5 12 3 .2 7-12.4 11-12 4 .5 7 12 11 15 3 3 7 2.5 11 3.5s7.2 6 11 3c4-3 7.7-20 11.5-22 4-1 7.7 9 11.5 13 4 4 8 6 11.8 8 4 2 8 6.7 11.7 3 4-3 7.8-18 11.6-21.2 4-3.6 7.7-3 11.5 0 3.5 2.8 7.4 12.8 11.2 17 4 4 7.6 9 11.4 8 3.7-2 7.7-14 11.7-16 3.7-2 7.5 1 11.3 3.5 4 2 7.6 9.7 11.4 9.6 4-.5 7.6-12 11.4-10.7s8 20 12 19c4-.8 7.6-22 11.5-23.6 4-1 7.5 14 11.3 15.7 4 2 7.4-6.4 11.2-6.2 4 0 8 5.8 11.7 8 3.4 2 7.3 3.6 11 5 3.6 1.5 7.4 6 11.3 3.5 3.7-2.7 7.5-20 11.3-19.5 4 .2 7.8 21.7 11.6 21.6 3.5 0 7.4-21 11.2-22 4-1 7.7 13 11.5 15.6s7.8-.4 11.7-.7c3.3-.4 7-2 11-1.3 4 1 7.4 7 11.2 6 4 0 7.7-12 11.5-10s7.4 20 11.2 22c4 2 7.6-10 11.5-11 4 0 7.4 8 11.2 8 4 .8 7.8-7 11.6-6 3.7 1 7.6 11.5 11.4 11.7 3.7 0 7.6-9.7 11.4-10.5 3.6-1 7.4 5.2 11.3 6 3.8 0 7.6-4.8 11.4-4 4 .4 7.6 5 11.4 7.3 4 2.6 7.6 8 11.4 7 4-.6 8-9.4 11.7-11.2 4-1.6 7.5 3 11.4.7 5-3 8.7-13 12.7-15s7.6-.4 11.4 1.7c3.7 2 11.4 11 11.4 11v31H19z"/></g></svg>